<svg id="_1-pencil" height="512" viewBox="0 0 64 64" width="512" xmlns="http://www.w3.org/2000/svg" data-name="1-pencil"><path d="m62.54243 7.093-5.63543-5.63542a4.99012 4.99012 0 0 0 -7.0491 0l-45.33866 45.33864a1.00055 1.00055 0 0 0 -.25783.44386l-4.22623 15.49669a1.00035 1.00035 0 0 0 1.22807 1.22807l15.49668-4.22623a1.00044 1.00044 0 0 0 .44387-.25783l45.33863-45.33864a4.99014 4.99014 0 0 0 0-7.04914zm-51.98726 40.7115-3.37244-.843 36.33804-36.3385 2.10793 2.108zm1.30663 1.5216 35.181-35.181 2.81211 2.81212-35.181 35.181h-2.81211zm4.33372 4.11875 35.07353-35.07354 2.10795 2.10793-36.33841 36.338zm28.73937-44.23594 1.40331-1.40344 9.85633 9.85634-1.40344 1.40331zm-39.00123 39.50209 3.92806.98178v3.44545a1.00009 1.00009 0 0 0 1 1h3.44548l.98179 3.92806-5.94627 1.62178a10.4788 10.4788 0 0 0 -2.00013-3.03064 10.4788 10.4788 0 0 0 -3.03059-2.00013zm-2.15627 7.90646a8.05814 8.05814 0 0 1 2.15108 1.45409 8.05859 8.05859 0 0 1 1.4541 2.15108l-4.95716 1.352zm57.35092-43.88946-3.51966 3.51967-9.85633-9.85631 3.51968-3.51967a3.05732 3.05732 0 0 1 4.22086 0l5.63547 5.63547a2.98486 2.98486 0 0 1 0 4.22086z"/></svg>